<?xml version="1.0" standalone="no"?>
<!DOCTYPE svg PUBLIC "-//W3C//DTD SVG 20010904//EN"
 "http://www.w3.org/TR/2001/REC-SVG-20010904/DTD/svg10.dtd">
<svg version="1.0" xmlns="http://www.w3.org/2000/svg"
 width="300.000000pt" height="169.000000pt" viewBox="0 0 300.000000 169.000000"
 preserveAspectRatio="xMidYMid meet">
<metadata>
Created by potrace 1.10, written by Peter Selinger 2001-2011
</metadata>
<g transform="translate(0.000000,169.000000) scale(0.100000,-0.100000)"
fill="#000000" stroke="none">
<path d="M1427 1613 c-24 -37 -50 -79 -57 -93 -16 -30 -212 -347 -315 -510
-40 -63 -113 -182 -163 -265 -49 -82 -160 -267 -246 -409 -86 -142 -156 -262
-156 -267 0 -4 71 -7 158 -6 l157 1 -147 3 c-82 2 -148 7 -148 12 0 5 14 31
30 57 17 27 60 99 96 159 84 143 72 124 152 250 38 61 102 166 142 235 40 69
101 170 137 225 71 111 209 334 327 528 43 70 81 127 86 127 4 0 17 -15 28
-32 20 -34 67 -110 183 -298 106 -172 159 -260 159 -267 0 -3 10 -20 23 -37
12 -17 68 -107 124 -201 55 -93 174 -293 263 -443 89 -150 171 -283 182 -295
20 -22 20 -22 0 13 -18 31 -149 253 -172 290 -24 39 -160 271 -185 315 -16 28
-81 136 -145 240 -64 105 -142 233 -172 285 -98 168 -274 444 -286 448 -6 2
-31 -27 -55 -65z"/>
<path d="M1433 1255 c-16 -25 -63 -102 -105 -172 -43 -69 -78 -127 -78 -129 0
-3 -43 -76 -93 -156 -22 -36 -41 -53 -82 -72 -30 -14 -61 -36 -71 -53 -10 -15
-31 -45 -46 -65 -16 -20 -34 -52 -40 -70 -6 -18 -19 -40 -30 -49 -21 -16 -83
-115 -118 -186 -11 -23 -31 -54 -45 -69 -14 -15 -25 -32 -25 -37 0 -12 69 64
70 76 0 13 98 171 130 212 17 21 30 44 30 51 0 7 15 32 33 56 17 24 38 55 46
70 9 17 34 35 70 51 l56 24 136 229 c75 126 148 250 164 277 15 26 30 47 33
47 6 0 62 -90 183 -295 26 -44 82 -140 126 -213 75 -129 80 -134 128 -154 28
-11 57 -23 65 -27 13 -7 69 -97 70 -112 0 -4 -20 -14 -44 -23 -57 -22 -116
-69 -138 -109 -33 -61 -17 -186 29 -235 6 -7 33 -22 60 -34 44 -20 66 -22 248
-24 l200 -1 -195 7 c-190 7 -224 13 -288 49 -53 29 -79 157 -46 226 20 42 95
102 145 115 21 6 41 14 44 19 3 5 -12 37 -33 71 -28 47 -46 65 -72 75 -78 28
-90 36 -115 74 -26 43 -166 286 -178 311 -22 45 -176 285 -186 288 -6 2 -23
-17 -38 -43z"/>
<path d="M1601 587 c-19 -19 -12 -52 19 -82 17 -16 30 -32 30 -37 0 -4 -22
-17 -50 -29 -47 -20 -100 -73 -100 -100 0 -7 13 7 30 29 29 40 75 72 103 72 8
0 20 7 27 15 11 13 7 22 -25 55 -45 46 -43 78 3 64 35 -11 129 -11 165 0 42
13 34 -15 -13 -44 -22 -13 -42 -30 -44 -36 -2 -6 13 -29 35 -50 21 -21 39 -46
39 -55 0 -22 -87 -89 -117 -89 -31 0 -30 30 2 60 14 13 25 28 25 34 0 5 -13
-3 -30 -19 -19 -19 -30 -39 -30 -57 0 -25 3 -28 33 -28 23 0 48 11 80 36 60
47 63 78 11 123 -19 18 -34 36 -32 41 2 5 19 19 38 32 42 29 48 64 10 60 -14
-1 -48 -5 -75 -8 -34 -4 -62 -1 -87 9 -26 11 -39 12 -47 4z"/>
<path d="M1090 573 c-14 -3 -29 -9 -34 -14 -6 -5 -18 -9 -28 -9 -10 0 -18 -5
-18 -11 0 -17 20 -49 31 -49 5 0 3 11 -6 23 -15 24 -15 24 36 40 66 22 81 21
130 -4 39 -19 42 -20 91 -3 38 12 71 15 132 11 67 -4 73 -4 36 4 -48 10 -134
7 -190 -8 -27 -7 -43 -5 -72 9 -36 18 -58 20 -108 11z"/>
<path d="M1497 506 c-15 -24 -27 -46 -27 -50 0 -7 -118 -184 -130 -196 -13
-12 -40 -60 -40 -71 0 -7 9 -9 24 -5 33 8 65 -26 46 -50 -49 -58 -195 -74
-292 -31 -29 13 -59 31 -67 40 -28 34 -55 12 -30 -23 9 -13 10 -12 5 3 -6 20
7 23 23 3 6 -8 38 -24 71 -36 48 -18 75 -21 142 -19 72 4 90 8 131 34 26 17
47 35 47 41 0 16 -44 54 -63 54 -22 0 -22 15 1 38 9 10 22 26 27 35 6 8 28 42
50 74 22 32 45 67 51 78 5 11 23 42 38 68 36 60 30 71 -7 13z"/>
<path d="M1090 499 c-29 -7 -26 -7 18 -4 28 2 52 1 52 -2 0 -3 -16 -23 -35
-44 -29 -32 -35 -47 -35 -82 0 -45 0 -44 63 -75 4 -2 7 0 7 5 0 4 -13 14 -30
21 -45 21 -42 69 9 125 56 61 42 77 -49 56z"/>
<path d="M1225 459 c-36 -32 -66 -87 -64 -118 0 -9 7 2 15 25 18 51 72 104
116 114 l33 8 -32 1 c-23 1 -43 -8 -68 -30z"/>
<path d="M1385 471 c-6 -11 -35 -57 -66 -103 -30 -45 -72 -109 -93 -141 -20
-32 -43 -60 -51 -63 -8 -3 -39 5 -69 19 -53 25 -72 48 -90 113 -10 32 -62 78
-82 70 -14 -5 -16 -17 -12 -74 3 -38 11 -77 17 -88 11 -17 12 -17 6 6 -13 52
-18 150 -7 150 14 0 72 -68 72 -84 0 -36 34 -76 85 -101 72 -34 89 -32 120 13
51 73 195 293 195 298 0 11 -16 2 -25 -15z"/>
<path d="M1642 389 c-21 -7 -41 -23 -58 -51 -38 -59 -29 -110 26 -162 36 -33
46 -37 73 -32 36 7 47 21 46 56 -1 23 -2 22 -10 -6 -15 -51 -53 -54 -100 -8
-53 51 -60 92 -25 144 19 29 36 42 66 50 22 6 40 13 40 15 0 7 -20 5 -58 -6z"/>
<path d="M1962 366 c-33 -31 -37 -40 -36 -81 1 -55 37 -99 93 -115 40 -11 201
-14 201 -3 0 3 -17 35 -37 71 -101 174 -90 162 -146 162 -29 0 -46 -8 -75 -34z
m112 18 c8 -3 26 -27 39 -52 14 -26 41 -72 61 -102 l36 -55 -72 -3 c-40 -2
-89 1 -108 7 -45 13 -88 57 -96 99 -6 28 -2 37 34 72 38 39 68 48 106 34z"/>
<path d="M1486 304 c-10 -26 -7 -104 5 -127 17 -32 60 -77 91 -93 32 -17 121
-18 151 -3 63 32 75 98 27 144 -36 35 -40 24 -5 -17 31 -37 31 -55 1 -92 -21
-27 -31 -30 -89 -34 l-66 -4 -53 50 -53 51 0 70 c0 39 -1 71 -1 71 -1 0 -5 -7
-8 -16z"/>
<path d="M915 70 l-80 -6 83 -2 c49 -1 82 2 82 8 0 6 -1 9 -2 8 -2 -1 -39 -5
-83 -8z"/>
</g>
</svg>
